<svg id="Capa_1" enable-background="new 0 0 512 512" height="512" viewBox="0 0 512 512" width="512" xmlns="http://www.w3.org/2000/svg"><g><g><path d="m56.755 440.579c-1.05 0-2.117-.215-3.139-.67-3.898-1.734-5.651-6.297-3.914-10.19l26.194-58.754c1.735-3.894 6.302-5.646 10.201-3.91 3.898 1.734 5.651 6.296 3.914 10.19l-26.194 58.754c-1.281 2.874-4.104 4.58-7.062 4.58z" fill="#b8acac"/></g><g><path d="m455.244 440.579c-2.958 0-5.781-1.706-7.062-4.58l-26.194-58.754c-1.735-3.894.017-8.456 3.915-10.19 3.897-1.734 8.465.017 10.201 3.91l26.194 58.754c1.735 3.894-.017 8.456-3.915 10.19-1.021.455-2.088.67-3.139.67z" fill="#b8acac"/></g><g><path clip-rule="evenodd" d="m241.253 441.686c7.388 5.465 11.067 8.444 14.747 8.553 3.679-.109 7.388-3.088 14.747-8.553l194.452-180.359c57.527-55.775 57.527-147.02 0-202.768-52.241-50.665-136.662-37.985-192.466 9.1-10.308 8.69-13.958 13.008-16.732 12.98-2.774.027-6.395-4.29-16.703-12.98-55.833-47.085-140.225-59.764-192.495-9.1-57.497 55.747-57.497 146.993 0 202.768z" fill="#fe0263" fill-rule="evenodd"/></g><g><path clip-rule="evenodd" d="m256 450.239c3.679-.109 7.388-3.088 14.747-8.553l194.452-180.359c20.47-19.84 33.64-44.161 39.539-69.794 10.717-46.402-2.482-97.066-39.539-132.974-24.354-23.638-55.716-33.476-87.896-32.492 21.288 23.255 33.406 51.758 36.356 80.97 4.176 41.319-9.987 84.086-42.43 115.539l-183.093 169.839 53.117 49.271c7.388 5.465 11.067 8.444 14.747 8.553z" fill="#e30256" fill-rule="evenodd"/></g><g><path clip-rule="evenodd" d="m232.639 255.205-164.696-64.301c-3.008-1.175-6.483.164-7.738 2.979l-29.201 65.531-2.395 5.356 74.201 52.495 102.409 13.773 30.603-68.591c1.255-2.815-.176-6.067-3.183-7.242z" fill="#fbf8f8" fill-rule="evenodd"/></g><g><path clip-rule="evenodd" d="m476.411 249.111-24.617-55.228c-1.256-2.815-4.731-4.154-7.738-2.979l-67.689 26.425-96.978 37.875c-3.008 1.175-4.439 4.427-3.183 7.242l15.214 34.159 8.03 17.954 108.571-3.908 70.784-56.157z" fill="#fbf8f8" fill-rule="evenodd"/></g><g><path clip-rule="evenodd" d="m81.025 484.48c7.914-20.386-2.657-43.204-24.266-51.621-21.609-8.444-46.343.574-56.271 20.167-1.051 2.077-.38 1.995 1.781 2.842l37.67 14.702 37.699 14.73c2.132.82 2.57 1.311 3.387-.82z" fill="#fbf8f8" fill-rule="evenodd"/></g><g><path clip-rule="evenodd" d="m511.511 453.026c-9.928-19.594-34.662-28.612-56.271-20.167-21.609 8.417-32.151 31.235-24.266 51.621.847 2.132 1.256 1.64 3.387.82l37.699-14.729 37.699-14.702c2.132-.848 2.803-.766 1.752-2.843z" fill="#fbf8f8" fill-rule="evenodd"/></g><g><path clip-rule="evenodd" d="m443.18 368.585c40.531-15.822 59.834-59.792 42.926-97.695l-7.3-16.396c-1.869-.574-3.738-1.093-5.607-1.585-34.428-8.827-65.674-2.214-92.159 22.873-46.693 44.188-78.464 27.3-88.13 24.13l17.608 39.515c6.804 15.221 18.426 27.272 32.53 35.17 21.054 11.805 47.627 14.483 71.865 5.028l14.133-5.52z" fill="#fdb440" fill-rule="evenodd"/></g><g><path clip-rule="evenodd" d="m130.989 275.782c-26.515-25.086-57.731-31.7-92.189-22.873-1.84.492-3.709 1.011-5.607 1.585l-7.3 16.396c-16.908 37.903 2.424 81.872 42.926 97.695l14.133 5.52 14.133 5.52c24.266 9.455 50.81 6.777 71.864-5.028 14.104-7.898 25.756-19.922 32.53-35.17l17.638-39.515c-9.694 3.17-41.435 20.058-88.128-24.13z" fill="#fdb440" fill-rule="evenodd"/></g><g><path clip-rule="evenodd" d="m201.481 339.427 3.738-8.389 13.9-31.126c-5.315 1.722-17.229 7.57-34.604 5.247l-6.745 15.139-2.979 6.64-.759 1.749c-5.227 11.723-13.345 21.561-23.244 29.076-2.949 2.241-6.074 4.29-9.315 6.094-21.025 11.805-47.598 14.483-71.835 5.028l-2.219-.874c.467.191.934.383 1.402.574l14.133 5.52 14.133 5.52c24.266 9.455 50.81 6.777 71.864-5.028 14.104-7.897 25.755-19.921 32.53-35.17z" fill="#fb8800" fill-rule="evenodd"/></g><g><path clip-rule="evenodd" d="m219.118 299.912 16.703-37.466c1.256-2.815-.175-6.067-3.183-7.242l-27.099-10.576c2.745 1.284 4.001 4.372 2.803 7.078l-16.703 37.466-7.125 15.986c17.375 2.324 29.29-3.524 34.604-5.246z" fill="#e0d2ce" fill-rule="evenodd"/></g><g><path clip-rule="evenodd" d="m81.025 484.48c7.914-20.386-2.657-43.204-24.266-51.621-4.818-1.886-9.782-2.897-14.717-3.115 12.673 10.876 17.638 28.147 11.535 43.997-.642 1.64-1.051 1.722-2.19 1.312h.029l26.222 10.247c2.132.82 2.57 1.311 3.387-.82z" fill="#e0d2ce" fill-rule="evenodd"/></g><g><path clip-rule="evenodd" d="m476.411 249.111-24.617-55.228c-1.256-2.815-4.731-4.154-7.738-2.979l-23.186 9.073c2.979-1.175 6.483.164 7.709 2.979l20.675 46.32c7.768.328 15.769 1.558 23.945 3.635 1.869.492 3.738 1.011 5.607 1.585z" fill="#e0d2ce" fill-rule="evenodd"/></g><g><path clip-rule="evenodd" d="m443.18 368.585c40.531-15.822 59.834-59.792 42.926-97.695l-7.3-16.396c-1.869-.574-3.738-1.093-5.607-1.585-8.176-2.077-16.178-3.307-23.945-3.635l3.971 8.909 2.365 5.356 2.132 4.728.964 2.186 4.234 9.483c16.908 37.93-2.424 81.899-42.926 97.695l9.052-3.525z" fill="#fb8800" fill-rule="evenodd"/></g><g><path clip-rule="evenodd" d="m511.511 453.026c-9.928-19.594-34.662-28.612-56.271-20.167-4.03 1.558-7.68 3.635-10.892 6.094 18.017-1.749 35.888 7.187 43.948 23.146.73 1.394.642 1.804-.146 2.186l21.609-8.417c2.132-.847 2.803-.765 1.752-2.842z" fill="#e0d2ce" fill-rule="evenodd"/></g><g><path d="m259.387 169.901c-4.267 0-7.726-3.456-7.726-7.718v-25.414c0-4.263 3.459-7.718 7.726-7.718 4.268 0 7.726 3.456 7.726 7.718v25.414c.001 4.263-3.458 7.718-7.726 7.718z" fill="#fbf8f8"/></g><g><path d="m204.407 198.595c-2.354 0-4.678-1.07-6.195-3.098l-11.797-15.768c-2.555-3.414-1.855-8.251 1.563-10.802 3.417-2.552 8.26-1.853 10.814 1.562l11.797 15.768c2.555 3.414 1.855 8.251-1.563 10.802-1.387 1.036-3.01 1.536-4.619 1.536z" fill="#fbf8f8"/></g><g><path d="m314.367 198.595c-1.609 0-3.231-.5-4.62-1.536-3.418-2.552-4.118-7.388-1.563-10.803l11.797-15.768c2.554-3.414 7.395-4.114 10.815-1.562 3.418 2.552 4.118 7.388 1.563 10.803l-11.797 15.768c-1.517 2.028-3.842 3.098-6.195 3.098z" fill="#fbf8f8"/></g></g></svg>